<?xml version="1.0" ?>

<!-- Uploaded to: SVG Repo, www.svgrepo.com, Generator: SVG Repo Mixer Tools https://www.svgrepo.com/svg/393441/bag-case-handbag-office-suitcase -->
<svg width="800px" height="800px" viewBox="0 0 64 64" xmlns="http://www.w3.org/2000/svg">

<defs>

<style>.cls-1{fill:#ab7c73;}.cls-2{fill:#6e5b5e;}.cls-3{fill:#d6b5ab;}.cls-4{fill:#eedecf;}</style>

</defs>

<g id="main">

<path class="cls-1" d="M60.35,55.57A7,7,0,0,1,55.05,58H9A7,7,0,0,1,2,50L5,29.85A1,1,0,0,1,6,29H58a1,1,0,0,1,1,.85L62,50A7,7,0,0,1,60.35,55.57Z"/>

<path class="cls-2" d="M40,14H24a1,1,0,0,1-1-1V9a3,3,0,0,1,3-3H38a3,3,0,0,1,3,3v4A1,1,0,0,1,40,14ZM25,12H39V9a1,1,0,0,0-1-1H26a1,1,0,0,0-1,1Z"/>

<path class="cls-3" d="M60,12H4a3,3,0,0,0-3,3v6.23A10.94,10.94,0,0,0,7.92,31.44l19.71,7.89a.94.94,0,0,0,.37.07h8a.94.94,0,0,0,.37-.07l19.71-7.89A10.94,10.94,0,0,0,63,21.23V15A3,3,0,0,0,60,12Z"/>

<path class="cls-2" d="M37,39V58H27V39a5,5,0,0,1,10,0Z"/>

<path class="cls-4" d="M32,42a1,1,0,0,1-1-1V39a1,1,0,0,1,2,0v2A1,1,0,0,1,32,42Z"/>

</g>

</svg>